<svg width="162" height="40" viewBox="0 0 162 40" fill="none" xmlns="http://www.w3.org/2000/svg">
<path d="M3.28026 3.56619H5.347L9.23137 13.9276L13.1065 3.56619H15.1732L10.0433 17H8.40098L3.28026 3.56619ZM2.33916 3.56619H4.30441L4.64579 12.5344V17H2.33916V3.56619ZM14.1491 3.56619H16.1236V17H13.8077V12.5344L14.1491 3.56619ZM23.2354 3.56619V17H20.9195V3.56619H23.2354ZM35.0712 13.5401C35.0712 13.2633 35.0281 13.0172 34.942 12.8019C34.862 12.5866 34.7175 12.3898 34.5083 12.2114C34.2992 12.0331 34.004 11.8608 33.6226 11.6948C33.2474 11.5225 32.7676 11.3472 32.1833 11.1688C31.5436 10.972 30.9531 10.7536 30.4118 10.5138C29.8766 10.2677 29.4091 9.98477 29.0093 9.66492C28.6095 9.33891 28.2989 8.96678 28.0775 8.54851C27.856 8.12409 27.7453 7.63508 27.7453 7.08149C27.7453 6.53405 27.8591 6.03582 28.0867 5.5868C28.3204 5.13777 28.6495 4.75026 29.0739 4.42426C29.5045 4.0921 30.0119 3.83683 30.5963 3.65845C31.1806 3.47392 31.8265 3.38166 32.5339 3.38166C33.5303 3.38166 34.3884 3.56619 35.1081 3.93525C35.8339 4.30431 36.3905 4.79947 36.7781 5.42072C37.1717 6.04197 37.3686 6.72781 37.3686 7.47823H35.0712C35.0712 7.03536 34.9758 6.64477 34.7851 6.30646C34.6006 5.96201 34.3177 5.69136 33.9363 5.49453C33.5611 5.2977 33.0844 5.19928 32.5062 5.19928C31.9587 5.19928 31.5036 5.28232 31.1407 5.4484C30.7778 5.61448 30.5071 5.83899 30.3287 6.12193C30.1503 6.40488 30.0612 6.72473 30.0612 7.08149C30.0612 7.33368 30.1196 7.56435 30.2365 7.77348C30.3533 7.97646 30.5317 8.16715 30.7716 8.34553C31.0115 8.51775 31.3129 8.68076 31.6758 8.83453C32.0387 8.98831 32.4662 9.13593 32.9583 9.2774C33.7026 9.49884 34.3515 9.74488 34.9051 10.0155C35.4587 10.28 35.92 10.5814 36.2891 10.9197C36.6581 11.258 36.9349 11.6425 37.1194 12.073C37.304 12.4975 37.3962 12.9803 37.3962 13.5216C37.3962 14.0875 37.2824 14.598 37.0549 15.0532C36.8273 15.5022 36.5013 15.8867 36.0768 16.2065C35.6586 16.5202 35.1542 16.7632 34.5637 16.9354C33.9794 17.1015 33.3273 17.1845 32.6077 17.1845C31.9618 17.1845 31.3252 17.0984 30.6978 16.9262C30.0765 16.754 29.5106 16.4925 29.0001 16.1419C28.4896 15.7852 28.0836 15.3423 27.7822 14.8133C27.4808 14.2782 27.3301 13.6538 27.3301 12.9403H29.646C29.646 13.3771 29.7198 13.7492 29.8674 14.0567C30.0212 14.3643 30.2334 14.6165 30.504 14.8133C30.7747 15.004 31.0884 15.1455 31.4451 15.2377C31.808 15.33 32.1956 15.3761 32.6077 15.3761C33.149 15.3761 33.6011 15.2992 33.964 15.1455C34.333 14.9917 34.6098 14.7764 34.7944 14.4996C34.9789 14.2228 35.0712 13.903 35.0712 13.5401ZM46.8608 3.56619V17H44.5634V3.56619H46.8608ZM51.0773 3.56619V5.41149H40.3838V3.56619H51.0773ZM71.2059 10.1355V15.2654C71.0152 15.5176 70.7169 15.7944 70.3109 16.0958C69.9111 16.391 69.379 16.6463 68.7147 16.8616C68.0504 17.0769 67.2231 17.1845 66.2328 17.1845C65.3901 17.1845 64.6182 17.0431 63.9169 16.7601C63.2157 16.471 62.6099 16.0497 62.0993 15.4961C61.5949 14.9425 61.2043 14.269 60.9276 13.4755C60.6508 12.6758 60.5124 11.7655 60.5124 10.7444V9.81254C60.5124 8.79762 60.6385 7.89343 60.8906 7.09995C61.149 6.30031 61.518 5.6237 61.9978 5.07011C62.4776 4.51652 63.0558 4.09825 63.7324 3.8153C64.4152 3.52621 65.1871 3.38166 66.0483 3.38166C67.1493 3.38166 68.0596 3.56619 68.7793 3.93525C69.5051 4.29816 70.0649 4.80254 70.4585 5.4484C70.8522 6.09425 71.1013 6.83238 71.2059 7.66276H68.9362C68.8624 7.19529 68.7178 6.77702 68.5025 6.40796C68.2934 6.0389 67.992 5.7498 67.5983 5.54066C67.2108 5.32538 66.7064 5.21774 66.0852 5.21774C65.55 5.21774 65.0795 5.31923 64.6735 5.52221C64.2676 5.72519 63.9292 6.02352 63.6586 6.41718C63.3941 6.81085 63.1942 7.29063 63.0589 7.85652C62.9236 8.42241 62.8559 9.06827 62.8559 9.79409V10.7444C62.8559 11.4825 62.9328 12.1376 63.0866 12.7097C63.2465 13.2817 63.4741 13.7646 63.7693 14.1582C64.0707 14.5519 64.4367 14.8502 64.8673 15.0532C65.2978 15.25 65.7838 15.3485 66.3251 15.3485C66.8541 15.3485 67.2877 15.3054 67.626 15.2193C67.9643 15.127 68.2319 15.0194 68.4287 14.8964C68.6317 14.7672 68.7885 14.6442 68.8993 14.5273V11.8608H66.1036V10.1355H71.2059ZM80.8919 5.35613L76.8784 17H74.4518L79.5079 3.56619H81.058L80.8919 5.35613ZM84.2503 17L80.2276 5.35613L80.0523 3.56619H81.6116L86.6861 17H84.2503ZM84.0566 12.0177V13.8538H76.7492V12.0177H84.0566ZM90.0797 3.56619H94.8313C95.8524 3.56619 96.7228 3.71996 97.4424 4.02751C98.1621 4.33507 98.7126 4.79024 99.094 5.39304C99.4815 5.98969 99.6752 6.72781 99.6752 7.6074C99.6752 8.27786 99.5522 8.86836 99.3062 9.3789C99.0601 9.88943 98.7126 10.32 98.2636 10.6706C97.8146 11.0151 97.2794 11.2826 96.6582 11.4733L95.957 11.8147H91.6851L91.6666 9.97862H94.8682C95.4218 9.97862 95.8831 9.8802 96.2522 9.68337C96.6213 9.48654 96.8981 9.21897 97.0826 8.88066C97.2733 8.53621 97.3686 8.14869 97.3686 7.71812C97.3686 7.25065 97.2763 6.84468 97.0918 6.50022C96.9134 6.14961 96.6366 5.88204 96.2614 5.69751C95.8862 5.50683 95.4095 5.41149 94.8313 5.41149H92.3955V17H90.0797V3.56619ZM97.7469 17L94.5914 10.9659L97.018 10.9566L100.22 16.8801V17H97.7469ZM107.774 17H104.905L104.923 15.1639H107.774C108.605 15.1639 109.3 14.9825 109.859 14.6196C110.425 14.2566 110.85 13.7369 111.133 13.0603C111.422 12.3837 111.566 11.5779 111.566 10.6429V9.91403C111.566 9.18821 111.483 8.54543 111.317 7.98569C111.157 7.42595 110.917 6.9554 110.598 6.57403C110.284 6.19267 109.896 5.90357 109.435 5.70674C108.98 5.50991 108.454 5.41149 107.857 5.41149H104.849V3.56619H107.857C108.749 3.56619 109.564 3.71689 110.302 4.01829C111.04 4.31354 111.677 4.74103 112.212 5.30077C112.754 5.86052 113.169 6.53098 113.458 7.31216C113.747 8.09333 113.891 8.96678 113.891 9.93249V10.6429C113.891 11.6086 113.747 12.4821 113.458 13.2633C113.169 14.0444 112.754 14.7149 112.212 15.2746C111.671 15.8282 111.025 16.2557 110.275 16.5571C109.53 16.8524 108.697 17 107.774 17ZM106.187 3.56619V17H103.871V3.56619H106.187ZM126.899 15.1639V17H119.767V15.1639H126.899ZM120.422 3.56619V17H118.106V3.56619H120.422ZM125.967 9.17591V10.9843H119.767V9.17591H125.967ZM126.853 3.56619V5.41149H119.767V3.56619H126.853ZM141.337 3.56619V17H139.021L132.996 7.37674V17H130.68V3.56619H132.996L139.039 13.2079V3.56619H141.337ZM153.052 13.5401C153.052 13.2633 153.009 13.0172 152.923 12.8019C152.843 12.5866 152.699 12.3898 152.49 12.2114C152.281 12.0331 151.985 11.8608 151.604 11.6948C151.229 11.5225 150.749 11.3472 150.165 11.1688C149.525 10.972 148.934 10.7536 148.393 10.5138C147.858 10.2677 147.39 9.98477 146.991 9.66492C146.591 9.33891 146.28 8.96678 146.059 8.54851C145.837 8.12409 145.727 7.63508 145.727 7.08149C145.727 6.53405 145.84 6.03582 146.068 5.5868C146.302 5.13777 146.631 4.75026 147.055 4.42426C147.486 4.0921 147.993 3.83683 148.578 3.65845C149.162 3.47392 149.808 3.38166 150.515 3.38166C151.512 3.38166 152.37 3.56619 153.089 3.93525C153.815 4.30431 154.372 4.79947 154.759 5.42072C155.153 6.04197 155.35 6.72781 155.35 7.47823H153.052C153.052 7.03536 152.957 6.64477 152.766 6.30646C152.582 5.96201 152.299 5.69136 151.918 5.49453C151.542 5.2977 151.066 5.19928 150.488 5.19928C149.94 5.19928 149.485 5.28232 149.122 5.4484C148.759 5.61448 148.488 5.83899 148.31 6.12193C148.132 6.40488 148.042 6.72473 148.042 7.08149C148.042 7.33368 148.101 7.56435 148.218 7.77348C148.335 7.97646 148.513 8.16715 148.753 8.34553C148.993 8.51775 149.294 8.68076 149.657 8.83453C150.02 8.98831 150.448 9.13593 150.94 9.2774C151.684 9.49884 152.333 9.74488 152.886 10.0155C153.44 10.28 153.901 10.5814 154.27 10.9197C154.639 11.258 154.916 11.6425 155.101 12.073C155.285 12.4975 155.378 12.9803 155.378 13.5216C155.378 14.0875 155.264 14.598 155.036 15.0532C154.809 15.5022 154.483 15.8867 154.058 16.2065C153.64 16.5202 153.136 16.7632 152.545 16.9354C151.961 17.1015 151.309 17.1845 150.589 17.1845C149.943 17.1845 149.307 17.0984 148.679 16.9262C148.058 16.754 147.492 16.4925 146.981 16.1419C146.471 15.7852 146.065 15.3423 145.764 14.8133C145.462 14.2782 145.311 13.6538 145.311 12.9403H147.627C147.627 13.3771 147.701 13.7492 147.849 14.0567C148.003 14.3643 148.215 14.6165 148.485 14.8133C148.756 15.004 149.07 15.1455 149.426 15.2377C149.789 15.33 150.177 15.3761 150.589 15.3761C151.13 15.3761 151.582 15.2992 151.945 15.1455C152.314 14.9917 152.591 14.7764 152.776 14.4996C152.96 14.2228 153.052 13.903 153.052 13.5401Z" fill="white"/>
<path d="M3.23012 24.2051H4.27713L5.82357 31.3356L9.83711 24.2051H10.9924L6.01613 32.9663H5.15565L3.23012 24.2051ZM2.85103 24.2051H3.81981L3.0496 29.5846L2.4599 32.9663H1.32865L2.85103 24.2051ZM10.3426 24.2051H11.3174L9.79499 32.9663H8.66975L9.27148 29.4883L10.3426 24.2051ZM15.8633 31.4018L16.7178 26.4556H17.8129L16.6817 32.9663H15.6407L15.8633 31.4018ZM16.2725 30.09L16.7178 30.072C16.6656 30.4812 16.5733 30.8703 16.441 31.2393C16.3086 31.6044 16.1281 31.9293 15.8994 32.2141C15.6748 32.495 15.394 32.7156 15.057 32.876C14.724 33.0325 14.3289 33.1047 13.8716 33.0927C13.5146 33.0806 13.2157 33.0084 12.975 32.876C12.7383 32.7437 12.5518 32.5652 12.4154 32.3405C12.279 32.1159 12.1887 31.8591 12.1446 31.5703C12.1005 31.2815 12.0945 30.9766 12.1266 30.6557L12.8306 26.4556H13.9197L13.2157 30.6737C13.1997 30.8502 13.1976 31.0247 13.2097 31.1972C13.2217 31.3657 13.2578 31.5202 13.318 31.6606C13.3782 31.801 13.4704 31.9153 13.5948 32.0035C13.7232 32.0878 13.8916 32.1339 14.1002 32.1419C14.5335 32.158 14.9005 32.0778 15.2014 31.9012C15.5023 31.7207 15.741 31.472 15.9175 31.1551C16.094 30.8382 16.2123 30.4832 16.2725 30.09ZM22.4612 31.2032C22.4973 30.9545 22.4511 30.76 22.3228 30.6196C22.1984 30.4792 22.0339 30.3729 21.8293 30.3006C21.6288 30.2244 21.4322 30.1622 21.2396 30.1141C20.9989 30.0539 20.7563 29.9797 20.5115 29.8915C20.2668 29.8032 20.0422 29.6909 19.8376 29.5545C19.637 29.4141 19.4766 29.2416 19.3562 29.037C19.2399 28.8284 19.1877 28.5757 19.1998 28.2788C19.2158 27.9579 19.3001 27.6751 19.4525 27.4304C19.609 27.1857 19.8095 26.9811 20.0542 26.8166C20.3029 26.6522 20.5737 26.5298 20.8666 26.4496C21.1594 26.3693 21.4502 26.3312 21.7391 26.3352C22.1483 26.3433 22.5193 26.4275 22.8523 26.588C23.1892 26.7484 23.456 26.9791 23.6526 27.28C23.8491 27.5808 23.9414 27.9459 23.9294 28.3751L22.8523 28.3691C22.8603 28.1404 22.8142 27.9439 22.7139 27.7794C22.6136 27.6149 22.4752 27.4886 22.2987 27.4003C22.1222 27.308 21.9216 27.2599 21.697 27.2559C21.4843 27.2519 21.2757 27.286 21.0712 27.3582C20.8666 27.4264 20.6921 27.5347 20.5477 27.6831C20.4032 27.8275 20.315 28.0161 20.2829 28.2487C20.2588 28.4212 20.2849 28.5637 20.3611 28.676C20.4373 28.7843 20.5416 28.8725 20.674 28.9407C20.8104 29.0049 20.9528 29.0591 21.1012 29.1032C21.2537 29.1433 21.3921 29.1794 21.5164 29.2115C21.8454 29.3038 22.1703 29.4201 22.4912 29.5605C22.8122 29.7009 23.0729 29.8955 23.2735 30.1442C23.4741 30.3889 23.5643 30.7118 23.5443 31.113C23.5282 31.454 23.438 31.7508 23.2735 32.0035C23.113 32.2523 22.9044 32.4589 22.6477 32.6233C22.395 32.7838 22.1162 32.9021 21.8113 32.9783C21.5064 33.0546 21.2015 33.0907 20.8967 33.0867C20.4754 33.0786 20.0823 32.9924 19.7173 32.8279C19.3562 32.6594 19.0674 32.4187 18.8508 32.1058C18.6342 31.7889 18.5319 31.4038 18.5439 30.9505L19.633 30.9565C19.633 31.2173 19.6872 31.4379 19.7955 31.6184C19.9078 31.7949 20.0623 31.9293 20.2588 32.0216C20.4554 32.1139 20.68 32.162 20.9328 32.166C21.1454 32.17 21.362 32.1419 21.5826 32.0818C21.8073 32.0216 21.9998 31.9213 22.1603 31.7809C22.3248 31.6365 22.425 31.4439 22.4612 31.2032ZM27.4945 33.0867C27.0492 33.0786 26.6621 32.9904 26.3332 32.8219C26.0082 32.6494 25.7415 32.4187 25.5329 32.1299C25.3283 31.8371 25.1818 31.5041 25.0936 31.131C25.0053 30.758 24.9793 30.3668 25.0154 29.9577L25.0394 29.6989C25.0796 29.2817 25.1818 28.8725 25.3463 28.4714C25.5108 28.0662 25.7294 27.7012 26.0022 27.3762C26.279 27.0513 26.6039 26.7946 26.977 26.606C27.3541 26.4135 27.7713 26.3232 28.2286 26.3352C28.6819 26.3433 29.059 26.4395 29.3599 26.6241C29.6607 26.8086 29.8954 27.0533 30.0639 27.3582C30.2364 27.6591 30.3487 27.998 30.4009 28.3751C30.453 28.7482 30.457 29.1313 30.4129 29.5244L30.3467 30.0239H25.6231L25.7675 29.1152L29.3719 29.1213L29.3899 29.025C29.4301 28.7362 29.414 28.4573 29.3418 28.1886C29.2696 27.9198 29.1372 27.6992 28.9447 27.5267C28.7561 27.3502 28.5014 27.2579 28.1805 27.2499C27.8475 27.2378 27.5587 27.306 27.314 27.4545C27.0693 27.5989 26.8647 27.7954 26.7002 28.0442C26.5357 28.2889 26.4054 28.5576 26.3091 28.8505C26.2168 29.1393 26.1526 29.4221 26.1165 29.6989L26.0925 29.9516C26.0684 30.2084 26.0764 30.4671 26.1165 30.7279C26.1567 30.9886 26.2329 31.2273 26.3452 31.4439C26.4615 31.6565 26.622 31.831 26.8266 31.9674C27.0312 32.0998 27.2839 32.17 27.5848 32.178C27.9498 32.1861 28.2767 32.1078 28.5656 31.9434C28.8584 31.7749 29.1252 31.5623 29.3659 31.3055L29.9857 31.8351C29.7971 32.1119 29.5725 32.3445 29.3117 32.5331C29.051 32.7216 28.7662 32.862 28.4573 32.9543C28.1484 33.0465 27.8275 33.0907 27.4945 33.0867ZM35.3439 31.4018L36.1984 26.4556H37.2935L36.1623 32.9663H35.1213L35.3439 31.4018ZM35.7531 30.09L36.1984 30.072C36.1462 30.4812 36.054 30.8703 35.9216 31.2393C35.7892 31.6044 35.6087 31.9293 35.38 32.2141C35.1554 32.495 34.8746 32.7156 34.5376 32.876C34.2047 33.0325 33.8095 33.1047 33.3522 33.0927C32.9952 33.0806 32.6963 33.0084 32.4556 32.876C32.219 32.7437 32.0324 32.5652 31.896 32.3405C31.7596 32.1159 31.6694 31.8591 31.6253 31.5703C31.5811 31.2815 31.5751 30.9766 31.6072 30.6557L32.3112 26.4556H33.4004L32.6963 30.6737C32.6803 30.8502 32.6783 31.0247 32.6903 31.1972C32.7023 31.3657 32.7384 31.5202 32.7986 31.6606C32.8588 31.801 32.9511 31.9153 33.0754 32.0035C33.2038 32.0878 33.3723 32.1339 33.5809 32.1419C34.0141 32.158 34.3812 32.0778 34.682 31.9012C34.9829 31.7207 35.2216 31.472 35.3981 31.1551C35.5746 30.8382 35.6929 30.4832 35.7531 30.09ZM39.8959 27.8155L39.0053 32.9663H37.9102L39.0414 26.4556H40.0764L39.8959 27.8155ZM39.4085 29.4642L38.9151 29.4522C38.9712 29.047 39.0715 28.6559 39.2159 28.2788C39.3604 27.9018 39.5529 27.5648 39.7936 27.2679C40.0383 26.9711 40.3332 26.7384 40.6781 26.5699C41.0231 26.4014 41.4223 26.3232 41.8756 26.3352C42.2126 26.3433 42.4974 26.4095 42.73 26.5338C42.9627 26.6542 43.1493 26.8206 43.2897 27.0333C43.4341 27.2419 43.5303 27.4825 43.5785 27.7553C43.6306 28.0281 43.6427 28.319 43.6146 28.6278L42.8865 32.9663H41.7974L42.5194 28.676C42.5515 28.4032 42.5355 28.1625 42.4713 27.9539C42.4111 27.7453 42.2968 27.5808 42.1283 27.4605C41.9598 27.3361 41.7312 27.2699 41.4423 27.2619C41.1174 27.2539 40.8346 27.3101 40.5939 27.4304C40.3572 27.5507 40.1587 27.7172 39.9982 27.9298C39.8417 28.1384 39.7154 28.3771 39.6191 28.6459C39.5228 28.9107 39.4526 29.1834 39.4085 29.4642ZM43.6146 28.8505L42.8323 29.0791C42.8805 28.7061 42.9808 28.353 43.1332 28.0201C43.2897 27.6871 43.4922 27.3923 43.741 27.1356C43.9897 26.8788 44.2785 26.6782 44.6074 26.5338C44.9364 26.3894 45.2994 26.3212 45.6966 26.3292C46.0496 26.3373 46.3484 26.4034 46.5932 26.5278C46.8379 26.6481 47.0324 26.8146 47.1768 27.0272C47.3253 27.2398 47.4235 27.4886 47.4717 27.7734C47.5238 28.0542 47.5318 28.3591 47.4957 28.688L46.7797 32.9663H45.6845L46.4066 28.67C46.4387 28.3932 46.4247 28.1505 46.3645 27.9419C46.3083 27.7333 46.196 27.5708 46.0275 27.4545C45.859 27.3341 45.6264 27.2719 45.3295 27.2679C45.0928 27.2599 44.8762 27.296 44.6797 27.3762C44.4831 27.4565 44.3126 27.5708 44.1682 27.7192C44.0238 27.8636 43.9034 28.0321 43.8071 28.2247C43.7149 28.4172 43.6507 28.6258 43.6146 28.8505ZM54.0243 28.1043L55.4443 27.1717C55.6891 27.0112 55.9057 26.8327 56.0942 26.6361C56.2828 26.4395 56.3931 26.1868 56.4252 25.8779C56.4532 25.6132 56.381 25.3986 56.2085 25.2341C56.036 25.0696 55.8194 24.9854 55.5587 24.9814C55.33 24.9814 55.1274 25.0395 54.9509 25.1559C54.7784 25.2722 54.638 25.4246 54.5297 25.6132C54.4254 25.8017 54.3612 26.0043 54.3372 26.2209C54.3091 26.4375 54.3311 26.6502 54.4034 26.8588C54.4756 27.0633 54.5718 27.2619 54.6922 27.4545C54.8125 27.643 54.9289 27.8235 55.0412 27.996L58.2845 32.9663H57.063L54.4034 28.8986C54.2268 28.6379 54.0463 28.3691 53.8618 28.0923C53.6773 27.8115 53.5248 27.5187 53.4045 27.2138C53.2882 26.9089 53.24 26.59 53.2601 26.257C53.2922 25.8198 53.4105 25.4367 53.6151 25.1077C53.8237 24.7748 54.1005 24.518 54.4455 24.3375C54.7905 24.157 55.1836 24.0727 55.6249 24.0848C55.9658 24.0928 56.2787 24.171 56.5636 24.3195C56.8484 24.4679 57.071 24.6765 57.2315 24.9453C57.396 25.21 57.4682 25.5229 57.4481 25.884C57.4321 26.1808 57.3558 26.4476 57.2195 26.6843C57.0871 26.9209 56.9186 27.1335 56.714 27.3221C56.5094 27.5106 56.2928 27.6851 56.0641 27.8456L54.1687 29.1393C53.9962 29.2597 53.8257 29.396 53.6572 29.5485C53.4887 29.6969 53.3423 29.8634 53.2179 30.0479C53.0976 30.2325 53.0234 30.435 52.9953 30.6557C52.9552 30.9605 52.9893 31.2253 53.0976 31.45C53.2059 31.6746 53.3704 31.8511 53.591 31.9795C53.8117 32.1038 54.0724 32.17 54.3733 32.178C54.8065 32.1901 55.1996 32.1018 55.5527 31.9133C55.9097 31.7207 56.2206 31.464 56.4853 31.1431C56.7541 30.8181 56.9707 30.4631 57.1352 30.078C57.2997 29.6889 57.41 29.3038 57.4662 28.9227H58.4289C58.3848 29.3238 58.3026 29.6929 58.1822 30.0299C58.0619 30.3628 57.9034 30.6797 57.7069 30.9806C57.5103 31.2775 57.2796 31.5723 57.0149 31.8651C56.9788 31.9053 56.9447 31.9494 56.9126 31.9975C56.8845 32.0417 56.8524 32.0838 56.8163 32.1239C56.5194 32.4568 56.1383 32.7036 55.673 32.864C55.2117 33.0205 54.7624 33.0947 54.3251 33.0867C53.8518 33.0746 53.4245 32.9703 53.0434 32.7738C52.6624 32.5772 52.3655 32.3004 52.1529 31.9434C51.9403 31.5823 51.852 31.1531 51.8881 30.6557C51.9202 30.2425 52.0466 29.8834 52.2672 29.5786C52.4919 29.2697 52.7626 28.9969 53.0796 28.7602C53.3965 28.5235 53.7114 28.3049 54.0243 28.1043ZM66.3715 28.8685H64.1511L64.3016 27.9359L66.197 27.9419C66.5059 27.9419 66.7967 27.8877 67.0695 27.7794C67.3463 27.6711 67.577 27.5086 67.7615 27.292C67.9501 27.0754 68.0644 26.8026 68.1045 26.4736C68.1446 26.1607 68.1125 25.91 68.0082 25.7215C67.9039 25.5289 67.7435 25.3905 67.5268 25.3063C67.3142 25.218 67.0635 25.1699 66.7747 25.1619L65.0537 25.1559L63.6998 32.9663H62.5626L64.0849 24.2051L66.7987 24.2111C67.1638 24.2192 67.5008 24.2693 67.8097 24.3616C68.1226 24.4498 68.3913 24.5862 68.616 24.7708C68.8406 24.9513 69.0091 25.1839 69.1214 25.4688C69.2378 25.7536 69.2799 26.0946 69.2478 26.4917C69.2157 26.9209 69.0793 27.282 68.8386 27.5748C68.6019 27.8677 68.3031 28.0983 67.942 28.2668C67.585 28.4313 67.2139 28.5396 66.8288 28.5917L66.3715 28.8685ZM65.6194 32.9663H62.9597L63.76 32.0216L65.6494 32.0276C65.9904 32.0276 66.3053 31.9654 66.5942 31.8411C66.883 31.7167 67.1217 31.5342 67.3102 31.2935C67.5028 31.0528 67.6211 30.756 67.6652 30.4029C67.7013 30.09 67.6773 29.8213 67.593 29.5966C67.5088 29.372 67.3644 29.1995 67.1598 29.0791C66.9552 28.9548 66.6944 28.8866 66.3775 28.8745L64.6987 28.8685L64.8732 27.9359L67.0094 27.9419L67.1959 28.2788C67.5569 28.335 67.8598 28.4634 68.1045 28.6639C68.3532 28.8605 68.5337 29.1092 68.6461 29.4101C68.7624 29.7069 68.8085 30.0339 68.7845 30.3909C68.7403 30.9646 68.5678 31.4439 68.267 31.829C67.9701 32.2101 67.589 32.497 67.1237 32.6895C66.6583 32.8781 66.1569 32.9703 65.6194 32.9663ZM70.2556 29.8193L70.2736 29.6809C70.3218 29.2436 70.4301 28.8224 70.5985 28.4172C70.771 28.0121 70.9977 27.651 71.2785 27.3341C71.5593 27.0172 71.8923 26.7685 72.2774 26.588C72.6625 26.4075 73.0917 26.3232 73.5651 26.3352C74.0224 26.3433 74.4135 26.4416 74.7384 26.6301C75.0674 26.8186 75.3322 27.0694 75.5327 27.3823C75.7373 27.6911 75.8797 28.0401 75.96 28.4293C76.0402 28.8184 76.0602 29.2195 76.0201 29.6327L76.0081 29.7711C75.9559 30.2084 75.8436 30.6276 75.6711 31.0287C75.4986 31.4299 75.27 31.7869 74.9852 32.0998C74.7043 32.4127 74.3714 32.6594 73.9863 32.8399C73.6012 33.0165 73.174 33.0987 72.7046 33.0867C72.2513 33.0786 71.8602 32.9824 71.5312 32.7978C71.2063 32.6093 70.9435 32.3606 70.743 32.0517C70.5424 31.7428 70.402 31.3958 70.3218 31.0107C70.2415 30.6256 70.2195 30.2284 70.2556 29.8193ZM71.3567 29.6809L71.3447 29.8253C71.3166 30.078 71.3146 30.3408 71.3387 30.6135C71.3668 30.8863 71.4309 31.1391 71.5312 31.3717C71.6355 31.6044 71.786 31.7949 71.9825 31.9434C72.1791 32.0918 72.4338 32.17 72.7467 32.178C73.0797 32.1861 73.3725 32.1219 73.6252 31.9855C73.878 31.8451 74.0926 31.6565 74.2691 31.4199C74.4496 31.1832 74.592 30.9204 74.6963 30.6316C74.8046 30.3428 74.8768 30.0559 74.9129 29.7711L74.925 29.6327C74.9531 29.38 74.9531 29.1172 74.925 28.8445C74.9009 28.5677 74.8367 28.3109 74.7324 28.0742C74.6321 27.8336 74.4837 27.639 74.2872 27.4906C74.0906 27.3381 73.8359 27.2579 73.523 27.2499C73.19 27.2378 72.8952 27.304 72.6384 27.4484C72.3857 27.5889 72.1711 27.7794 71.9946 28.0201C71.8181 28.2608 71.6756 28.5276 71.5673 28.8204C71.463 29.1092 71.3928 29.396 71.3567 29.6809ZM80.7045 26.4556L80.554 27.3101H77.1302L77.2806 26.4556H80.7045ZM78.7128 24.873H79.7959L78.6947 31.3657C78.6827 31.5061 78.6867 31.6325 78.7067 31.7448C78.7268 31.8571 78.7749 31.9474 78.8511 32.0156C78.9274 32.0798 79.0437 32.1139 79.2002 32.1179C79.2884 32.1179 79.3747 32.1119 79.4589 32.0998C79.5471 32.0838 79.6354 32.0697 79.7237 32.0577L79.6454 32.9723C79.5171 33.0084 79.3847 33.0345 79.2483 33.0506C79.1159 33.0706 78.9835 33.0786 78.8511 33.0746C78.5182 33.0706 78.2574 32.9864 78.0689 32.8219C77.8804 32.6574 77.752 32.4448 77.6838 32.1841C77.6156 31.9233 77.5955 31.6445 77.6236 31.3477L78.7128 24.873ZM84.8894 31.8531L85.4309 28.4894C85.459 28.2407 85.4349 28.0221 85.3587 27.8336C85.2865 27.645 85.1642 27.4986 84.9917 27.3943C84.8232 27.29 84.6106 27.2338 84.3538 27.2258C84.1292 27.2218 83.9086 27.2579 83.6919 27.3341C83.4793 27.4103 83.2948 27.5247 83.1383 27.6771C82.9819 27.8295 82.8796 28.0221 82.8315 28.2548L81.7483 28.2608C81.7764 27.9359 81.8787 27.653 82.0552 27.4123C82.2317 27.1676 82.4524 26.9651 82.7171 26.8046C82.9819 26.6401 83.2667 26.5198 83.5716 26.4436C83.8765 26.3633 84.1733 26.3252 84.4621 26.3292C84.8994 26.3373 85.2785 26.4315 85.5994 26.612C85.9244 26.7886 86.1691 27.0373 86.3335 27.3582C86.498 27.6791 86.5582 28.0642 86.514 28.5135L86.0146 31.5462C85.9785 31.7669 85.9564 31.9895 85.9484 32.2141C85.9444 32.4348 85.9705 32.6514 86.0266 32.864L86.0146 32.9663L84.9134 32.9723C84.8693 32.7878 84.8473 32.6013 84.8473 32.4127C84.8513 32.2242 84.8653 32.0376 84.8894 31.8531ZM85.5573 29.019L85.4309 29.8012L84.402 29.7952C84.1854 29.7952 83.9567 29.8112 83.716 29.8433C83.4753 29.8754 83.2467 29.9356 83.03 30.0239C82.8134 30.1121 82.6309 30.2405 82.4825 30.409C82.334 30.5734 82.2438 30.788 82.2117 31.0528C82.1876 31.2694 82.2137 31.458 82.2899 31.6184C82.3701 31.7749 82.4905 31.8972 82.6509 31.9855C82.8114 32.0737 82.9979 32.1199 83.2106 32.1239C83.4873 32.1279 83.7601 32.0737 84.0289 31.9614C84.2977 31.8491 84.5324 31.6886 84.7329 31.48C84.9335 31.2714 85.0719 31.0307 85.1481 30.758L85.5453 31.2935C85.469 31.5583 85.3447 31.803 85.1722 32.0276C84.9997 32.2482 84.7951 32.4388 84.5584 32.5993C84.3258 32.7597 84.075 32.8841 83.8063 32.9723C83.5375 33.0606 83.2687 33.1027 82.9999 33.0987C82.6349 33.0907 82.3039 33.0084 82.0071 32.852C81.7143 32.6955 81.4816 32.4769 81.3091 32.1961C81.1406 31.9113 81.0684 31.5803 81.0925 31.2032C81.1165 30.7901 81.2248 30.4431 81.4174 30.1622C81.61 29.8814 81.8567 29.6568 82.1575 29.4883C82.4624 29.3198 82.7954 29.1995 83.1564 29.1273C83.5174 29.0511 83.8745 29.0129 84.2275 29.0129L85.5573 29.019ZM89.5557 27.9118L88.6771 32.9663H87.588L88.7193 26.4556H89.7482L89.5557 27.9118ZM89.0502 29.4642L88.6049 29.4522C88.6611 29.0631 88.7634 28.682 88.9118 28.3089C89.0643 27.9318 89.2628 27.5929 89.5075 27.292C89.7562 26.9911 90.0511 26.7545 90.3921 26.582C90.7371 26.4055 91.1302 26.3232 91.5715 26.3352C91.9205 26.3433 92.2113 26.4115 92.444 26.5398C92.6807 26.6642 92.8652 26.8347 92.9976 27.0513C93.1299 27.2679 93.2182 27.5187 93.2623 27.8035C93.3065 28.0843 93.3105 28.3831 93.2744 28.7L92.5643 32.9663H91.4692L92.1912 28.682C92.2193 28.4212 92.2093 28.1866 92.1612 27.978C92.117 27.7654 92.0167 27.5969 91.8603 27.4725C91.7079 27.3441 91.4872 27.276 91.1984 27.2679C90.8935 27.2599 90.6187 27.3181 90.374 27.4424C90.1293 27.5668 89.9147 27.7373 89.7302 27.9539C89.5497 28.1665 89.4012 28.4052 89.2849 28.67C89.1726 28.9307 89.0943 29.1955 89.0502 29.4642ZM96.6289 26.4556L95.4976 32.9663H94.4085L95.5398 26.4556H96.6289ZM95.7564 24.7467C95.7564 24.5581 95.8145 24.4017 95.9309 24.2773C96.0512 24.149 96.2057 24.0828 96.3942 24.0788C96.5827 24.0748 96.7372 24.1329 96.8575 24.2533C96.9819 24.3736 97.0421 24.526 97.0381 24.7106C97.0381 24.8951 96.9759 25.0496 96.8515 25.1739C96.7312 25.2943 96.5787 25.3564 96.3942 25.3604C96.2097 25.3645 96.0572 25.3103 95.9369 25.198C95.8165 25.0816 95.7564 24.9312 95.7564 24.7467ZM100.068 32.178C100.332 32.1821 100.579 32.1319 100.808 32.0276C101.036 31.9233 101.231 31.7749 101.391 31.5823C101.552 31.3898 101.666 31.1671 101.734 30.9144L102.769 30.9084C102.705 31.3457 102.535 31.7288 102.258 32.0577C101.985 32.3866 101.65 32.6434 101.253 32.8279C100.86 33.0084 100.449 33.0947 100.02 33.0867C99.5622 33.0786 99.1731 32.9844 98.8522 32.8038C98.5352 32.6193 98.2805 32.3746 98.088 32.0697C97.8954 31.7649 97.763 31.4219 97.6908 31.0408C97.6186 30.6557 97.6026 30.2605 97.6427 29.8554L97.6667 29.5966C97.7149 29.1594 97.8212 28.7442 97.9857 28.351C98.1501 27.9539 98.3688 27.6029 98.6415 27.298C98.9183 26.9891 99.2453 26.7484 99.6224 26.5759C99.9995 26.4034 100.423 26.3232 100.892 26.3352C101.349 26.3433 101.746 26.4516 102.083 26.6602C102.42 26.8648 102.681 27.1436 102.866 27.4966C103.05 27.8496 103.142 28.2508 103.142 28.7L102.12 28.694C102.116 28.4373 102.065 28.2006 101.969 27.984C101.873 27.7674 101.73 27.5929 101.542 27.4605C101.353 27.3281 101.121 27.2559 100.844 27.2439C100.511 27.2358 100.22 27.298 99.9714 27.4304C99.7267 27.5628 99.5181 27.7453 99.3456 27.978C99.1771 28.2066 99.0427 28.4614 98.9424 28.7422C98.8461 29.023 98.7799 29.3078 98.7438 29.5966L98.7138 29.8493C98.6897 30.1061 98.6857 30.3688 98.7017 30.6376C98.7218 30.9064 98.7779 31.1571 98.8702 31.3898C98.9625 31.6184 99.1049 31.805 99.2974 31.9494C99.49 32.0938 99.7467 32.17 100.068 32.178ZM107.67 31.8531L108.212 28.4894C108.24 28.2407 108.216 28.0221 108.14 27.8336C108.068 27.645 107.945 27.4986 107.773 27.3943C107.604 27.29 107.392 27.2338 107.135 27.2258C106.91 27.2218 106.69 27.2579 106.473 27.3341C106.26 27.4103 106.076 27.5247 105.919 27.6771C105.763 27.8295 105.661 28.0221 105.612 28.2548L104.529 28.2608C104.557 27.9359 104.66 27.653 104.836 27.4123C105.013 27.1676 105.233 26.9651 105.498 26.8046C105.763 26.6401 106.048 26.5198 106.353 26.4436C106.657 26.3633 106.954 26.3252 107.243 26.3292C107.68 26.3373 108.059 26.4315 108.38 26.612C108.705 26.7886 108.95 27.0373 109.115 27.3582C109.279 27.6791 109.339 28.0642 109.295 28.5135L108.796 31.5462C108.76 31.7669 108.737 31.9895 108.729 32.2141C108.725 32.4348 108.751 32.6514 108.808 32.864L108.796 32.9663L107.694 32.9723C107.65 32.7878 107.628 32.6013 107.628 32.4127C107.632 32.2242 107.646 32.0376 107.67 31.8531ZM108.338 29.019L108.212 29.8012L107.183 29.7952C106.966 29.7952 106.738 29.8112 106.497 29.8433C106.256 29.8754 106.028 29.9356 105.811 30.0239C105.594 30.1121 105.412 30.2405 105.263 30.409C105.115 30.5734 105.025 30.788 104.993 31.0528C104.969 31.2694 104.995 31.458 105.071 31.6184C105.151 31.7749 105.271 31.8972 105.432 31.9855C105.592 32.0737 105.779 32.1199 105.992 32.1239C106.268 32.1279 106.541 32.0737 106.81 31.9614C107.079 31.8491 107.313 31.6886 107.514 31.48C107.715 31.2714 107.853 31.0307 107.929 30.758L108.326 31.2935C108.25 31.5583 108.126 31.803 107.953 32.0276C107.781 32.2482 107.576 32.4388 107.339 32.5993C107.107 32.7597 106.856 32.8841 106.587 32.9723C106.318 33.0606 106.05 33.1027 105.781 33.0987C105.416 33.0907 105.085 33.0084 104.788 32.852C104.495 32.6955 104.263 32.4769 104.09 32.1961C103.922 31.9113 103.849 31.5803 103.873 31.2032C103.898 30.7901 104.006 30.4431 104.198 30.1622C104.391 29.8814 104.638 29.6568 104.939 29.4883C105.243 29.3198 105.576 29.1995 105.937 29.1273C106.298 29.0511 106.655 29.0129 107.008 29.0129L108.338 29.019ZM113.155 23.7237L111.548 32.9663H110.459L112.06 23.7237H113.155ZM123.769 28.6038L123.252 31.811C123.015 32.1399 122.72 32.3987 122.367 32.5872C122.018 32.7717 121.643 32.9021 121.242 32.9783C120.841 33.0546 120.45 33.0907 120.069 33.0867C119.487 33.0786 118.996 32.9543 118.594 32.7136C118.197 32.4729 117.882 32.154 117.65 31.7568C117.417 31.3597 117.261 30.9164 117.18 30.427C117.104 29.9376 117.1 29.4362 117.168 28.9227L117.265 28.2427C117.345 27.6932 117.485 27.1676 117.686 26.6662C117.89 26.1607 118.159 25.7135 118.492 25.3243C118.829 24.9312 119.232 24.6243 119.702 24.4037C120.171 24.1791 120.712 24.0727 121.326 24.0848C121.884 24.0968 122.361 24.2132 122.758 24.4338C123.16 24.6544 123.472 24.9633 123.697 25.3604C123.926 25.7576 124.06 26.2289 124.1 26.7745H122.981C122.953 26.4295 122.873 26.1287 122.74 25.8719C122.612 25.6152 122.425 25.4146 122.181 25.2702C121.94 25.1258 121.639 25.0475 121.278 25.0355C120.821 25.0195 120.424 25.1037 120.087 25.2882C119.754 25.4688 119.473 25.7155 119.244 26.0284C119.02 26.3373 118.839 26.6843 118.703 27.0694C118.566 27.4505 118.468 27.8376 118.408 28.2307L118.306 28.9287C118.261 29.2697 118.249 29.6267 118.269 29.9998C118.294 30.3688 118.368 30.7138 118.492 31.0348C118.62 31.3557 118.815 31.6184 119.076 31.823C119.337 32.0236 119.682 32.1279 120.111 32.1359C120.355 32.1399 120.596 32.1239 120.833 32.0878C121.074 32.0517 121.302 31.9875 121.519 31.8952C121.735 31.803 121.938 31.6726 122.127 31.5041L122.482 29.5425H120.508L120.676 28.6038H123.769ZM128.767 31.8531L129.308 28.4894C129.336 28.2407 129.312 28.0221 129.236 27.8336C129.164 27.645 129.041 27.4986 128.869 27.3943C128.7 27.29 128.488 27.2338 128.231 27.2258C128.006 27.2218 127.786 27.2579 127.569 27.3341C127.356 27.4103 127.172 27.5247 127.015 27.6771C126.859 27.8295 126.757 28.0221 126.709 28.2548L125.626 28.2608C125.654 27.9359 125.756 27.653 125.932 27.4123C126.109 27.1676 126.33 26.9651 126.594 26.8046C126.859 26.6401 127.144 26.5198 127.449 26.4436C127.754 26.3633 128.05 26.3252 128.339 26.3292C128.777 26.3373 129.156 26.4315 129.477 26.612C129.802 26.7886 130.046 27.0373 130.211 27.3582C130.375 27.6791 130.435 28.0642 130.391 28.5135L129.892 31.5462C129.856 31.7669 129.834 31.9895 129.826 32.2141C129.822 32.4348 129.848 32.6514 129.904 32.864L129.892 32.9663L128.791 32.9723C128.746 32.7878 128.724 32.6013 128.724 32.4127C128.728 32.2242 128.742 32.0376 128.767 31.8531ZM129.434 29.019L129.308 29.8012L128.279 29.7952C128.063 29.7952 127.834 29.8112 127.593 29.8433C127.352 29.8754 127.124 29.9356 126.907 30.0239C126.691 30.1121 126.508 30.2405 126.36 30.409C126.211 30.5734 126.121 30.788 126.089 31.0528C126.065 31.2694 126.091 31.458 126.167 31.6184C126.247 31.7749 126.368 31.8972 126.528 31.9855C126.689 32.0737 126.875 32.1199 127.088 32.1239C127.364 32.1279 127.637 32.0737 127.906 31.9614C128.175 31.8491 128.41 31.6886 128.61 31.48C128.811 31.2714 128.949 31.0307 129.025 30.758L129.422 31.2935C129.346 31.5583 129.222 31.803 129.049 32.0276C128.877 32.2482 128.672 32.4388 128.436 32.5993C128.203 32.7597 127.952 32.8841 127.683 32.9723C127.415 33.0606 127.146 33.1027 126.877 33.0987C126.512 33.0907 126.181 33.0084 125.884 32.852C125.591 32.6955 125.359 32.4769 125.186 32.1961C125.018 31.9113 124.946 31.5803 124.97 31.2032C124.994 30.7901 125.102 30.4431 125.295 30.1622C125.487 29.8814 125.734 29.6568 126.035 29.4883C126.34 29.3198 126.673 29.1995 127.034 29.1273C127.395 29.0511 127.752 29.0129 128.105 29.0129L129.434 29.019ZM133.499 27.5267L132.554 32.9663H131.465L132.596 26.4556H133.655L133.499 27.5267ZM135.611 26.4014L135.509 27.4484C135.425 27.4324 135.338 27.4184 135.25 27.4063C135.166 27.3943 135.082 27.3883 134.997 27.3883C134.737 27.3843 134.502 27.4244 134.293 27.5086C134.089 27.5889 133.906 27.7032 133.746 27.8516C133.589 28 133.455 28.1745 133.343 28.3751C133.234 28.5757 133.148 28.7923 133.084 29.025L132.741 29.2055C132.785 28.8806 132.857 28.5476 132.957 28.2066C133.062 27.8656 133.204 27.5507 133.385 27.2619C133.569 26.9731 133.8 26.7404 134.077 26.5639C134.357 26.3874 134.694 26.3052 135.088 26.3172C135.176 26.3172 135.262 26.3252 135.346 26.3413C135.435 26.3573 135.523 26.3774 135.611 26.4014ZM139.736 31.6365L141.108 23.7237H142.203L140.596 32.9663H139.603L139.736 31.6365ZM135.813 29.8313L135.825 29.7049C135.877 29.3038 135.973 28.9026 136.113 28.5015C136.258 28.1003 136.452 27.7333 136.697 27.4003C136.942 27.0674 137.239 26.8026 137.588 26.606C137.937 26.4095 138.344 26.3172 138.809 26.3292C139.226 26.3413 139.575 26.4395 139.856 26.6241C140.137 26.8086 140.358 27.0533 140.518 27.3582C140.683 27.6591 140.793 27.99 140.849 28.351C140.909 28.7121 140.927 29.0751 140.903 29.4402L140.837 29.9938C140.769 30.3829 140.656 30.764 140.5 31.1371C140.344 31.5101 140.141 31.8471 139.892 32.148C139.648 32.4448 139.353 32.6795 139.008 32.852C138.667 33.0245 138.276 33.1047 137.834 33.0927C137.409 33.0766 137.056 32.9663 136.775 32.7617C136.499 32.5571 136.282 32.2944 136.125 31.9735C135.973 31.6485 135.873 31.2995 135.825 30.9264C135.78 30.5494 135.776 30.1843 135.813 29.8313ZM136.932 29.6929L136.92 29.8193C136.892 30.06 136.882 30.3147 136.89 30.5835C136.902 30.8482 136.948 31.0989 137.028 31.3356C137.108 31.5683 137.239 31.7608 137.419 31.9133C137.6 32.0617 137.844 32.1419 138.153 32.154C138.482 32.162 138.787 32.0878 139.068 31.9313C139.349 31.7749 139.589 31.5663 139.79 31.3055C139.991 31.0448 140.135 30.762 140.223 30.4571L140.458 28.9949C140.47 28.7743 140.444 28.5637 140.38 28.3631C140.315 28.1585 140.219 27.976 140.091 27.8155C139.966 27.655 139.812 27.5267 139.628 27.4304C139.447 27.3301 139.244 27.278 139.02 27.2739C138.683 27.2619 138.392 27.3281 138.147 27.4725C137.903 27.6129 137.696 27.8035 137.527 28.0442C137.363 28.2808 137.233 28.5436 137.136 28.8324C137.04 29.1213 136.972 29.4081 136.932 29.6929ZM145.142 33.0867C144.697 33.0786 144.31 32.9904 143.981 32.8219C143.656 32.6494 143.389 32.4187 143.181 32.1299C142.976 31.8371 142.83 31.5041 142.741 31.131C142.653 30.758 142.627 30.3668 142.663 29.9577L142.687 29.6989C142.727 29.2817 142.83 28.8725 142.994 28.4714C143.159 28.0662 143.377 27.7012 143.65 27.3762C143.927 27.0513 144.252 26.7946 144.625 26.606C145.002 26.4135 145.419 26.3232 145.876 26.3352C146.33 26.3433 146.707 26.4395 147.008 26.6241C147.308 26.8086 147.543 27.0533 147.712 27.3582C147.884 27.6591 147.996 27.998 148.049 28.3751C148.101 28.7482 148.105 29.1313 148.061 29.5244L147.994 30.0239H143.271L143.415 29.1152L147.02 29.1213L147.038 29.025C147.078 28.7362 147.062 28.4573 146.99 28.1886C146.917 27.9198 146.785 27.6992 146.592 27.5267C146.404 27.3502 146.149 27.2579 145.828 27.2499C145.495 27.2378 145.206 27.306 144.962 27.4545C144.717 27.5989 144.512 27.7954 144.348 28.0442C144.183 28.2889 144.053 28.5576 143.957 28.8505C143.865 29.1393 143.8 29.4221 143.764 29.6989L143.74 29.9516C143.716 30.2084 143.724 30.4671 143.764 30.7279C143.804 30.9886 143.881 31.2273 143.993 31.4439C144.109 31.6565 144.27 31.831 144.474 31.9674C144.679 32.0998 144.932 32.17 145.232 32.178C145.598 32.1861 145.924 32.1078 146.213 31.9434C146.506 31.7749 146.773 31.5623 147.014 31.3055L147.633 31.8351C147.445 32.1119 147.22 32.3445 146.959 32.5331C146.699 32.7216 146.414 32.862 146.105 32.9543C145.796 33.0465 145.475 33.0907 145.142 33.0867ZM150.819 27.9118L149.941 32.9663H148.852L149.983 26.4556H151.012L150.819 27.9118ZM150.314 29.4642L149.869 29.4522C149.925 29.0631 150.027 28.682 150.176 28.3089C150.328 27.9318 150.527 27.5929 150.771 27.292C151.02 26.9911 151.315 26.7545 151.656 26.582C152.001 26.4055 152.394 26.3232 152.835 26.3352C153.184 26.3433 153.475 26.4115 153.708 26.5398C153.944 26.6642 154.129 26.8347 154.261 27.0513C154.394 27.2679 154.482 27.5187 154.526 27.8035C154.57 28.0843 154.574 28.3831 154.538 28.7L153.828 32.9663H152.733L153.455 28.682C153.483 28.4212 153.473 28.1866 153.425 27.978C153.381 27.7654 153.281 27.5969 153.124 27.4725C152.972 27.3441 152.751 27.276 152.462 27.2679C152.157 27.2599 151.882 27.3181 151.638 27.4424C151.393 27.5668 151.178 27.7373 150.994 27.9539C150.813 28.1665 150.665 28.4052 150.549 28.67C150.436 28.9307 150.358 29.1955 150.314 29.4642Z" fill="white"/>
</svg>
